<svg xmlns="http://www.w3.org/2000/svg" xmlns:xlink="http://www.w3.org/1999/xlink" width="1444pt" height="2403pt" viewBox="0.00 0.00 1443.53 2403.20">
<g id="graph0" class="graph" transform="scale(1 1) rotate(0) translate(4 2399.2)">
<title>mindmap</title>
<polygon fill="white" stroke="none" points="-4,4 -4,-2399.2 1439.53,-2399.2 1439.53,4 -4,4"/>
<!-- 厦门前往金门 -->
<g id="node1" class="node">
<title>厦门前往金门</title>
<ellipse fill="#4caf50" stroke="black" cx="108" cy="-700" rx="108" ry="43.2"/>
<text text-anchor="middle" x="108" y="-695.2" font-family="Sans-serif" font-size="16.00" fill="white">厦门前往金门</text>
</g>
<!-- 必备证件（两证一签） -->
<g id="node2" class="node">
<title>必备证件（两证一签）</title>
<path fill="#ffc107" stroke="black" d="M429.3,-1670C429.3,-1670 349.5,-1670 349.5,-1670 343.5,-1670 337.5,-1664 337.5,-1658 337.5,-1658 337.5,-1646 337.5,-1646 337.5,-1640 343.5,-1634 349.5,-1634 349.5,-1634 429.3,-1634 429.3,-1634 435.3,-1634 441.3,-1640 441.3,-1646 441.3,-1646 441.3,-1658 441.3,-1658 441.3,-1664 435.3,-1670 429.3,-1670"/>
<text text-anchor="middle" x="389.4" y="-1649" font-family="Sans-serif" font-size="10.00">必备证件（两证一签）</text>
</g>
<!-- 厦门前往金门&#45;&gt;必备证件（两证一签） -->
<g id="edge1" class="edge">
<title>厦门前往金门-&gt;必备证件（两证一签）</title>
<path fill="none" stroke="#555555" d="M121.64,-743.07C170.99,-911.21 349.6,-1519.81 383,-1633.6"/>
<text text-anchor="middle" x="276.75" y="-1291.97" font-family="Sans-serif" font-size="9.00">办理</text>
</g>
<!-- 交通方式 -->
<g id="node3" class="node">
<title>交通方式</title>
<path fill="#ffc107" stroke="black" d="M406.8,-865C406.8,-865 372,-865 372,-865 366,-865 360,-859 360,-853 360,-853 360,-841 360,-841 360,-835 366,-829 372,-829 372,-829 406.8,-829 406.8,-829 412.8,-829 418.8,-835 418.8,-841 418.8,-841 418.8,-853 418.8,-853 418.8,-859 412.8,-865 406.8,-865"/>
<text text-anchor="middle" x="389.4" y="-844" font-family="Sans-serif" font-size="10.00">交通方式</text>
</g>
<!-- 厦门前往金门&#45;&gt;交通方式 -->
<g id="edge2" class="edge">
<title>厦门前往金门-&gt;交通方式</title>
<path fill="none" stroke="#555555" d="M174.51,-734.46C233.22,-765.35 316.56,-809.2 359.83,-831.97"/>
<text text-anchor="middle" x="276.75" y="-793.69" font-family="Sans-serif" font-size="9.00">选择</text>
</g>
<!-- 通关与注意事项 -->
<g id="node4" class="node">
<title>通关与注意事项</title>
<path fill="#ffc107" stroke="black" d="M418.05,-653C418.05,-653 360.75,-653 360.75,-653 354.75,-653 348.75,-647 348.75,-641 348.75,-641 348.75,-629 348.75,-629 348.75,-623 354.75,-617 360.75,-617 360.75,-617 418.05,-617 418.05,-617 424.05,-617 430.05,-623 430.05,-629 430.05,-629 430.05,-641 430.05,-641 430.05,-647 424.05,-653 418.05,-653"/>
<text text-anchor="middle" x="389.4" y="-632" font-family="Sans-serif" font-size="10.00">通关与注意事项</text>
</g>
<!-- 厦门前往金门&#45;&gt;通关与注意事项 -->
<g id="edge3" class="edge">
<title>厦门前往金门-&gt;通关与注意事项</title>
<path fill="none" stroke="#555555" d="M202.04,-678.36C251.72,-666.8 310.31,-653.17 348.34,-644.32"/>
<text text-anchor="middle" x="276.75" y="-664.38" font-family="Sans-serif" font-size="9.00">了解</text>
</g>
<!-- 温馨提示 -->
<g id="node5" class="node">
<title>温馨提示</title>
<path fill="#ffc107" stroke="black" d="M406.8,-275C406.8,-275 372,-275 372,-275 366,-275 360,-269 360,-263 360,-263 360,-251 360,-251 360,-245 366,-239 372,-239 372,-239 406.8,-239 406.8,-239 412.8,-239 418.8,-245 418.8,-251 418.8,-251 418.8,-263 418.8,-263 418.8,-269 412.8,-275 406.8,-275"/>
<text text-anchor="middle" x="389.4" y="-254" font-family="Sans-serif" font-size="10.00">温馨提示</text>
</g>
<!-- 厦门前往金门&#45;&gt;温馨提示 -->
<g id="edge4" class="edge">
<title>厦门前往金门-&gt;温馨提示</title>
<path fill="none" stroke="#555555" d="M135.54,-657.92C194.79,-563.97 335.89,-340.26 376.98,-275.1"/>
<text text-anchor="middle" x="276.75" y="-441.52" font-family="Sans-serif" font-size="9.00">参考</text>
</g>
<!-- 大陆居民往来台湾通行证\n（大通证） -->
<g id="node6" class="node">
<title>大陆居民往来台湾通行证\n（大通证）</title>
<path fill="#fff9c4" stroke="black" d="M673.35,-2145.2C673.35,-2145.2 586.05,-2145.2 586.05,-2145.2 580.05,-2145.2 574.05,-2139.2 574.05,-2133.2 574.05,-2133.2 574.05,-2118.8 574.05,-2118.8 574.05,-2112.8 580.05,-2106.8 586.05,-2106.8 586.05,-2106.8 673.35,-2106.8 673.35,-2106.8 679.35,-2106.8 685.35,-2112.8 685.35,-2118.8 685.35,-2118.8 685.35,-2133.2 685.35,-2133.2 685.35,-2139.2 679.35,-2145.2 673.35,-2145.2"/>
<text text-anchor="middle" x="629.7" y="-2129" font-family="Sans-serif" font-size="10.00">大陆居民往来台湾通行证</text>
<text text-anchor="middle" x="629.7" y="-2117" font-family="Sans-serif" font-size="10.00">（大通证）</text>
</g>
<!-- 必备证件（两证一签）&#45;&gt;大陆居民往来台湾通行证\n（大通证） -->
<g id="edge5" class="edge">
<title>必备证件（两证一签）-&gt;大陆居民往来台湾通行证\n（大通证）</title>
<path fill="none" stroke="#555555" d="M399.6,-1670.29C437.32,-1745.32 580.03,-2029.18 618.88,-2106.47"/>
<text text-anchor="middle" x="502.05" y="-1877.49" font-family="Sans-serif" font-size="9.00">包含</text>
</g>
<!-- 旅游签注（G签/L签） -->
<g id="node12" class="node">
<title>旅游签注（G签/L签）</title>
<path fill="#fff9c4" stroke="black" d="M670.15,-1762C670.15,-1762 589.25,-1762 589.25,-1762 583.25,-1762 577.25,-1756 577.25,-1750 577.25,-1750 577.25,-1738 577.25,-1738 577.25,-1732 583.25,-1726 589.25,-1726 589.25,-1726 670.15,-1726 670.15,-1726 676.15,-1726 682.15,-1732 682.15,-1738 682.15,-1738 682.15,-1750 682.15,-1750 682.15,-1756 676.15,-1762 670.15,-1762"/>
<text text-anchor="middle" x="629.7" y="-1741" font-family="Sans-serif" font-size="10.00">旅游签注（G签/L签）</text>
</g>
<!-- 必备证件（两证一签）&#45;&gt;旅游签注（G签/L签） -->
<g id="edge11" class="edge">
<title>必备证件（两证一签）-&gt;旅游签注（G签/L签）</title>
<path fill="none" stroke="#555555" d="M438.05,-1670.4C479.61,-1686.44 539.59,-1709.6 581.13,-1725.64"/>
<text text-anchor="middle" x="502.05" y="-1697.94" font-family="Sans-serif" font-size="9.00">包含</text>
</g>
<!-- 入金证 -->
<g id="node16" class="node">
<title>入金证</title>
<path fill="#fff9c4" stroke="black" d="M644.7,-1553C644.7,-1553 614.7,-1553 614.7,-1553 608.7,-1553 602.7,-1547 602.7,-1541 602.7,-1541 602.7,-1529 602.7,-1529 602.7,-1523 608.7,-1517 614.7,-1517 614.7,-1517 644.7,-1517 644.7,-1517 650.7,-1517 656.7,-1523 656.7,-1529 656.7,-1529 656.7,-1541 656.7,-1541 656.7,-1547 650.7,-1553 644.7,-1553"/>
<text text-anchor="middle" x="629.7" y="-1532" font-family="Sans-serif" font-size="10.00">入金证</text>
</g>
<!-- 必备证件（两证一签）&#45;&gt;入金证 -->
<g id="edge15" class="edge">
<title>必备证件（两证一签）-&gt;入金证</title>
<path fill="none" stroke="#555555" d="M427.9,-1633.59C476.52,-1609.72 560.11,-1568.67 602.46,-1547.88"/>
<text text-anchor="middle" x="502.05" y="-1599.71" font-family="Sans-serif" font-size="9.00">包含</text>
</g>
<!-- 海上航线（小三通） -->
<g id="node26" class="node">
<title>海上航线（小三通）</title>
<path fill="#fff9c4" stroke="black" d="M665.85,-1151C665.85,-1151 593.55,-1151 593.55,-1151 587.55,-1151 581.55,-1145 581.55,-1139 581.55,-1139 581.55,-1127 581.55,-1127 581.55,-1121 587.55,-1115 593.55,-1115 593.55,-1115 665.85,-1115 665.85,-1115 671.85,-1115 677.85,-1121 677.85,-1127 677.85,-1127 677.85,-1139 677.85,-1139 677.85,-1145 671.85,-1151 665.85,-1151"/>
<text text-anchor="middle" x="629.7" y="-1130" font-family="Sans-serif" font-size="10.00">海上航线（小三通）</text>
</g>
<!-- 交通方式&#45;&gt;海上航线（小三通） -->
<g id="edge25" class="edge">
<title>交通方式-&gt;海上航线（小三通）</title>
<path fill="none" stroke="#555555" d="M405.67,-865.33C448.71,-916.98 570.67,-1063.36 613.56,-1114.83"/>
<text text-anchor="middle" x="502.05" y="-984.12" font-family="Sans-serif" font-size="9.00">主要</text>
</g>
<!-- 空中航线 -->
<g id="node31" class="node">
<title>空中航线</title>
<path fill="#fff9c4" stroke="black" d="M647.1,-865C647.1,-865 612.3,-865 612.3,-865 606.3,-865 600.3,-859 600.3,-853 600.3,-853 600.3,-841 600.3,-841 600.3,-835 606.3,-829 612.3,-829 612.3,-829 647.1,-829 647.1,-829 653.1,-829 659.1,-835 659.1,-841 659.1,-841 659.1,-853 659.1,-853 659.1,-859 653.1,-865 647.1,-865"/>
<text text-anchor="middle" x="629.7" y="-844" font-family="Sans-serif" font-size="10.00">空中航线</text>
</g>
<!-- 交通方式&#45;&gt;空中航线 -->
<g id="edge30" class="edge">
<title>交通方式-&gt;空中航线</title>
<path fill="none" stroke="#555555" d="M419.14,-847C464.95,-847 553.99,-847 599.85,-847"/>
<text text-anchor="middle" x="502.05" y="-849.7" font-family="Sans-serif" font-size="9.00">了解</text>
</g>
<!-- 通关方式：五通码头电子化通关 -->
<g id="node35" class="node">
<title>通关方式：五通码头电子化通关</title>
<path fill="#fff9c4" stroke="black" d="M684.6,-653C684.6,-653 574.8,-653 574.8,-653 568.8,-653 562.8,-647 562.8,-641 562.8,-641 562.8,-629 562.8,-629 562.8,-623 568.8,-617 574.8,-617 574.8,-617 684.6,-617 684.6,-617 690.6,-617 696.6,-623 696.6,-629 696.6,-629 696.6,-641 696.6,-641 696.6,-647 690.6,-653 684.6,-653"/>
<text text-anchor="middle" x="629.7" y="-632" font-family="Sans-serif" font-size="10.00">通关方式：五通码头电子化通关</text>
</g>
<!-- 通关与注意事项&#45;&gt;通关方式：五通码头电子化通关 -->
<g id="edge34" class="edge">
<title>通关与注意事项-&gt;通关方式：五通码头电子化通关</title>
<path fill="none" stroke="#555555" d="M430.29,-635C466.33,-635 520.07,-635 562.54,-635"/>
<text text-anchor="middle" x="502.05" y="-637.7" font-family="Sans-serif" font-size="9.00">方式</text>
</g>
<!-- 携带物品限制 -->
<g id="node38" class="node">
<title>携带物品限制</title>
<path fill="#fff9c4" stroke="black" d="M654.6,-512C654.6,-512 604.8,-512 604.8,-512 598.8,-512 592.8,-506 592.8,-500 592.8,-500 592.8,-488 592.8,-488 592.8,-482 598.8,-476 604.8,-476 604.8,-476 654.6,-476 654.6,-476 660.6,-476 666.6,-482 666.6,-488 666.6,-488 666.6,-500 666.6,-500 666.6,-506 660.6,-512 654.6,-512"/>
<text text-anchor="middle" x="629.7" y="-491" font-family="Sans-serif" font-size="10.00">携带物品限制</text>
</g>
<!-- 通关与注意事项&#45;&gt;携带物品限制 -->
<g id="edge37" class="edge">
<title>通关与注意事项-&gt;携带物品限制</title>
<path fill="none" stroke="#555555" d="M421.55,-616.57C467.22,-589.54 551.86,-539.46 597.54,-512.44"/>
<text text-anchor="middle" x="502.05" y="-571.43" font-family="Sans-serif" font-size="9.00">注意</text>
</g>
<!-- 建议提前办理相关证件\n以免影响行程 -->
<g id="node41" class="node">
<title>建议提前办理相关证件\n以免影响行程</title>
<path fill="#e0e0e0" stroke="black" d="M669.6,-418.2C669.6,-418.2 589.8,-418.2 589.8,-418.2 583.8,-418.2 577.8,-412.2 577.8,-406.2 577.8,-406.2 577.8,-391.8 577.8,-391.8 577.8,-385.8 583.8,-379.8 589.8,-379.8 589.8,-379.8 669.6,-379.8 669.6,-379.8 675.6,-379.8 681.6,-385.8 681.6,-391.8 681.6,-391.8 681.6,-406.2 681.6,-406.2 681.6,-412.2 675.6,-418.2 669.6,-418.2"/>
<text text-anchor="middle" x="629.7" y="-402" font-family="Sans-serif" font-size="10.00">建议提前办理相关证件</text>
<text text-anchor="middle" x="629.7" y="-390" font-family="Sans-serif" font-size="10.00">以免影响行程</text>
</g>
<!-- 温馨提示&#45;&gt;建议提前办理相关证件\n以免影响行程 -->
<g id="edge40" class="edge">
<title>温馨提示-&gt;建议提前办理相关证件\n以免影响行程</title>
<path fill="none" stroke="#555555" d="M419.14,-274.13C463.59,-300.61 548.73,-351.35 595.65,-379.31"/>
<text text-anchor="middle" x="502.05" y="-326.44" font-family="Sans-serif" font-size="9.00">重要</text>
</g>
<!-- 建议携带个人常用药品 -->
<g id="node42" class="node">
<title>建议携带个人常用药品</title>
<path fill="#e0e0e0" stroke="black" d="M669.6,-322C669.6,-322 589.8,-322 589.8,-322 583.8,-322 577.8,-316 577.8,-310 577.8,-310 577.8,-298 577.8,-298 577.8,-292 583.8,-286 589.8,-286 589.8,-286 669.6,-286 669.6,-286 675.6,-286 681.6,-292 681.6,-298 681.6,-298 681.6,-310 681.6,-310 681.6,-316 675.6,-322 669.6,-322"/>
<text text-anchor="middle" x="629.7" y="-301" font-family="Sans-serif" font-size="10.00">建议携带个人常用药品</text>
</g>
<!-- 温馨提示&#45;&gt;建议携带个人常用药品 -->
<g id="edge41" class="edge">
<title>温馨提示-&gt;建议携带个人常用药品</title>
<path fill="none" stroke="#555555" d="M419.14,-262.67C458.39,-270.41 529.37,-284.41 577.74,-293.95"/>
<text text-anchor="middle" x="502.05" y="-281.79" font-family="Sans-serif" font-size="9.00">健康</text>
</g>
<!-- 如计划从金门前往台湾本岛\n需另行办理入台证 -->
<g id="node43" class="node">
<title>如计划从金门前往台湾本岛\n需另行办理入台证</title>
<path fill="#e0e0e0" stroke="black" d="M677.1,-228.2C677.1,-228.2 582.3,-228.2 582.3,-228.2 576.3,-228.2 570.3,-222.2 570.3,-216.2 570.3,-216.2 570.3,-201.8 570.3,-201.8 570.3,-195.8 576.3,-189.8 582.3,-189.8 582.3,-189.8 677.1,-189.8 677.1,-189.8 683.1,-189.8 689.1,-195.8 689.1,-201.8 689.1,-201.8 689.1,-216.2 689.1,-216.2 689.1,-222.2 683.1,-228.2 677.1,-228.2"/>
<text text-anchor="middle" x="629.7" y="-212" font-family="Sans-serif" font-size="10.00">如计划从金门前往台湾本岛</text>
<text text-anchor="middle" x="629.7" y="-200" font-family="Sans-serif" font-size="10.00">需另行办理入台证</text>
</g>
<!-- 温馨提示&#45;&gt;如计划从金门前往台湾本岛\n需另行办理入台证 -->
<g id="edge42" class="edge">
<title>温馨提示-&gt;如计划从金门前往台湾本岛\n需另行办理入台证</title>
<path fill="none" stroke="#555555" d="M419.14,-251.21C456.41,-243.7 522.28,-230.44 570.25,-220.77"/>
<text text-anchor="middle" x="502.05" y="-237.14" font-family="Sans-serif" font-size="9.00">后续</text>
</g>
<!-- 如需进一步协助或最新航班信息\n请随时告知 -->
<g id="node44" class="node">
<title>如需进一步协助或最新航班信息\n请随时告知</title>
<path fill="#e0e0e0" stroke="black" d="M684.6,-132.2C684.6,-132.2 574.8,-132.2 574.8,-132.2 568.8,-132.2 562.8,-126.2 562.8,-120.2 562.8,-120.2 562.8,-105.8 562.8,-105.8 562.8,-99.8 568.8,-93.8 574.8,-93.8 574.8,-93.8 684.6,-93.8 684.6,-93.8 690.6,-93.8 696.6,-99.8 696.6,-105.8 696.6,-105.8 696.6,-120.2 696.6,-120.2 696.6,-126.2 690.6,-132.2 684.6,-132.2"/>
<text text-anchor="middle" x="629.7" y="-116" font-family="Sans-serif" font-size="10.00">如需进一步协助或最新航班信息</text>
<text text-anchor="middle" x="629.7" y="-104" font-family="Sans-serif" font-size="10.00">请随时告知</text>
</g>
<!-- 温馨提示&#45;&gt;如需进一步协助或最新航班信息\n请随时告知 -->
<g id="edge43" class="edge">
<title>温馨提示-&gt;如需进一步协助或最新航班信息\n请随时告知</title>
<path fill="none" stroke="#555555" d="M419.14,-239.63C463.83,-212.63 549.68,-160.75 596.43,-132.5"/>
<text text-anchor="middle" x="502.05" y="-192.02" font-family="Sans-serif" font-size="9.00">服务</text>
</g>
<!-- 祝您旅途愉快！ -->
<g id="node45" class="node">
<title>祝您旅途愉快！</title>
<path fill="#e0e0e0" stroke="black" d="M658.35,-36C658.35,-36 601.05,-36 601.05,-36 595.05,-36 589.05,-30 589.05,-24 589.05,-24 589.05,-12 589.05,-12 589.05,-6 595.05,0 601.05,0 601.05,0 658.35,0 658.35,0 664.35,0 670.35,-6 670.35,-12 670.35,-12 670.35,-24 670.35,-24 670.35,-30 664.35,-36 658.35,-36"/>
<text text-anchor="middle" x="629.7" y="-15" font-family="Sans-serif" font-size="10.00">祝您旅途愉快！</text>
</g>
<!-- 温馨提示&#45;&gt;祝您旅途愉快！ -->
<g id="edge44" class="edge">
<title>温馨提示-&gt;祝您旅途愉快！</title>
<path fill="none" stroke="#555555" d="M404.65,-238.58C432.74,-202.9 498.17,-122.77 562.8,-65 574.33,-54.7 588.11,-44.57 600.09,-36.37"/>
<text text-anchor="middle" x="502.05" y="-132.53" font-family="Sans-serif" font-size="9.00">祝福</text>
</g>
<!-- 携带身份证\n（外省户籍需居住证） -->
<g id="node7" class="node">
<title>携带身份证\n（外省户籍需居住证）</title>
<path fill="#e0e0e0" stroke="black" d="M951.04,-2395.2C951.04,-2395.2 871.24,-2395.2 871.24,-2395.2 865.24,-2395.2 859.24,-2389.2 859.24,-2383.2 859.24,-2383.2 859.24,-2368.8 859.24,-2368.8 859.24,-2362.8 865.24,-2356.8 871.24,-2356.8 871.24,-2356.8 951.04,-2356.8 951.04,-2356.8 957.04,-2356.8 963.04,-2362.8 963.04,-2368.8 963.04,-2368.8 963.04,-2383.2 963.04,-2383.2 963.04,-2389.2 957.04,-2395.2 951.04,-2395.2"/>
<text text-anchor="middle" x="911.14" y="-2379" font-family="Sans-serif" font-size="10.00">携带身份证</text>
<text text-anchor="middle" x="911.14" y="-2367" font-family="Sans-serif" font-size="10.00">（外省户籍需居住证）</text>
</g>
<!-- 大陆居民往来台湾通行证\n（大通证）&#45;&gt;携带身份证\n（外省户籍需居住证） -->
<g id="edge6" class="edge">
<title>大陆居民往来台湾通行证\n（大通证）-&gt;携带身份证\n（外省户籍需居住证）</title>
<path fill="none" stroke="#555555" d="M647.35,-2145.64C680.14,-2183.63 756.49,-2268.69 831.6,-2328 844.77,-2338.4 860.35,-2348.34 874.14,-2356.45"/>
<text text-anchor="middle" x="764.1" y="-2279.56" font-family="Sans-serif" font-size="9.00">需携带</text>
</g>
<!-- 办理地点：\n厦门市公安局出入境管理支队\n或赴金旅游办证中心 -->
<g id="node8" class="node">
<title>办理地点：\n厦门市公安局出入境管理支队\n或赴金旅游办证中心</title>
<path fill="#e0e0e0" stroke="black" d="M962.29,-2299.2C962.29,-2299.2 859.99,-2299.2 859.99,-2299.2 853.99,-2299.2 847.99,-2293.2 847.99,-2287.2 847.99,-2287.2 847.99,-2260.8 847.99,-2260.8 847.99,-2254.8 853.99,-2248.8 859.99,-2248.8 859.99,-2248.8 962.29,-2248.8 962.29,-2248.8 968.29,-2248.8 974.29,-2254.8 974.29,-2260.8 974.29,-2260.8 974.29,-2287.2 974.29,-2287.2 974.29,-2293.2 968.29,-2299.2 962.29,-2299.2"/>
<text text-anchor="middle" x="911.14" y="-2283" font-family="Sans-serif" font-size="10.00">办理地点：</text>
<text text-anchor="middle" x="911.14" y="-2271" font-family="Sans-serif" font-size="10.00">厦门市公安局出入境管理支队</text>
<text text-anchor="middle" x="911.14" y="-2259" font-family="Sans-serif" font-size="10.00">或赴金旅游办证中心</text>
</g>
<!-- 大陆居民往来台湾通行证\n（大通证）&#45;&gt;办理地点：\n厦门市公安局出入境管理支队\n或赴金旅游办证中心 -->
<g id="edge7" class="edge">
<title>大陆居民往来台湾通行证\n（大通证）-&gt;办理地点：\n厦门市公安局出入境管理支队\n或赴金旅游办证中心</title>
<path fill="none" stroke="#555555" d="M667.81,-2145.65C717.84,-2172.15 806.99,-2219.37 862.1,-2248.55"/>
<text text-anchor="middle" x="764.1" y="-2202.7" font-family="Sans-serif" font-size="9.00">办理地点</text>
</g>
<!-- 首次申请需现场拍照 -->
<g id="node9" class="node">
<title>首次申请需现场拍照</title>
<path fill="#e0e0e0" stroke="black" d="M947.29,-2191C947.29,-2191 874.99,-2191 874.99,-2191 868.99,-2191 862.99,-2185 862.99,-2179 862.99,-2179 862.99,-2167 862.99,-2167 862.99,-2161 868.99,-2155 874.99,-2155 874.99,-2155 947.29,-2155 947.29,-2155 953.29,-2155 959.29,-2161 959.29,-2167 959.29,-2167 959.29,-2179 959.29,-2179 959.29,-2185 953.29,-2191 947.29,-2191"/>
<text text-anchor="middle" x="911.14" y="-2170" font-family="Sans-serif" font-size="10.00">首次申请需现场拍照</text>
</g>
<!-- 大陆居民往来台湾通行证\n（大通证）&#45;&gt;首次申请需现场拍照 -->
<g id="edge8" class="edge">
<title>大陆居民往来台湾通行证\n（大通证）-&gt;首次申请需现场拍照</title>
<path fill="none" stroke="#555555" d="M685.57,-2135.23C737.23,-2143.92 813.79,-2156.79 862.83,-2165.04"/>
<text text-anchor="middle" x="764.1" y="-2152.2" font-family="Sans-serif" font-size="9.00">注意</text>
</g>
<!-- 办理时长：5&#45;7工作日 -->
<g id="node10" class="node">
<title>办理时长：5-7工作日</title>
<path fill="#e0e0e0" stroke="black" d="M950.2,-2097C950.2,-2097 872.07,-2097 872.07,-2097 866.07,-2097 860.07,-2091 860.07,-2085 860.07,-2085 860.07,-2073 860.07,-2073 860.07,-2067 866.07,-2061 872.07,-2061 872.07,-2061 950.2,-2061 950.2,-2061 956.2,-2061 962.2,-2067 962.2,-2073 962.2,-2073 962.2,-2085 962.2,-2085 962.2,-2091 956.2,-2097 950.2,-2097"/>
<text text-anchor="middle" x="911.14" y="-2076" font-family="Sans-serif" font-size="10.00">办理时长：5-7工作日</text>
</g>
<!-- 大陆居民往来台湾通行证\n（大通证）&#45;&gt;办理时长：5&#45;7工作日 -->
<g id="edge9" class="edge">
<title>大陆居民往来台湾通行证\n（大通证）-&gt;办理时长：5-7工作日</title>
<path fill="none" stroke="#555555" d="M685.57,-2116.77C736.12,-2108.27 810.51,-2095.76 859.62,-2087.5"/>
<text text-anchor="middle" x="764.1" y="-2108.01" font-family="Sans-serif" font-size="9.00">时间</text>
</g>
<!-- 建议提前预约：\n“i厦门”或“国家移民管理局”小程序 -->
<g id="node11" class="node">
<title>建议提前预约：\n“i厦门”或“国家移民管理局”小程序</title>
<path fill="#e0e0e0" stroke="black" d="M978.68,-2003.2C978.68,-2003.2 843.6,-2003.2 843.6,-2003.2 837.6,-2003.2 831.6,-1997.2 831.6,-1991.2 831.6,-1991.2 831.6,-1976.8 831.6,-1976.8 831.6,-1970.8 837.6,-1964.8 843.6,-1964.8 843.6,-1964.8 978.68,-1964.8 978.68,-1964.8 984.68,-1964.8 990.68,-1970.8 990.68,-1976.8 990.68,-1976.8 990.68,-1991.2 990.68,-1991.2 990.68,-1997.2 984.68,-2003.2 978.68,-2003.2"/>
<text text-anchor="middle" x="911.14" y="-1987" font-family="Sans-serif" font-size="10.00">建议提前预约：</text>
<text text-anchor="middle" x="911.14" y="-1975" font-family="Sans-serif" font-size="10.00">“i厦门”或“国家移民管理局”小程序</text>
</g>
<!-- 大陆居民往来台湾通行证\n（大通证）&#45;&gt;建议提前预约：\n“i厦门”或“国家移民管理局”小程序 -->
<g id="edge10" class="edge">
<title>大陆居民往来台湾通行证\n（大通证）-&gt;建议提前预约：\n“i厦门”或“国家移民管理局”小程序</title>
<path fill="none" stroke="#555555" d="M669.26,-2106.4C722.56,-2079.32 818.2,-2030.72 871.53,-2003.62"/>
<text text-anchor="middle" x="764.1" y="-2066.2" font-family="Sans-serif" font-size="9.00">建议</text>
</g>
<!-- G签：个人旅游\n（自由行） -->
<g id="node13" class="node">
<title>G签：个人旅游\n（自由行）</title>
<path fill="#e0e0e0" stroke="black" d="M939.65,-1907.2C939.65,-1907.2 882.63,-1907.2 882.63,-1907.2 876.63,-1907.2 870.63,-1901.2 870.63,-1895.2 870.63,-1895.2 870.63,-1880.8 870.63,-1880.8 870.63,-1874.8 876.63,-1868.8 882.63,-1868.8 882.63,-1868.8 939.65,-1868.8 939.65,-1868.8 945.65,-1868.8 951.65,-1874.8 951.65,-1880.8 951.65,-1880.8 951.65,-1895.2 951.65,-1895.2 951.65,-1901.2 945.65,-1907.2 939.65,-1907.2"/>
<text text-anchor="middle" x="911.14" y="-1891" font-family="Sans-serif" font-size="10.00">G签：个人旅游</text>
<text text-anchor="middle" x="911.14" y="-1879" font-family="Sans-serif" font-size="10.00">（自由行）</text>
</g>
<!-- 旅游签注（G签/L签）&#45;&gt;G签：个人旅游\n（自由行） -->
<g id="edge12" class="edge">
<title>旅游签注（G签/L签）-&gt;G签：个人旅游\n（自由行）</title>
<path fill="none" stroke="#555555" d="M666.37,-1762.38C719.2,-1789.6 817.79,-1840.41 872,-1868.34"/>
<text text-anchor="middle" x="764.1" y="-1818.7" font-family="Sans-serif" font-size="9.00">类型</text>
</g>
<!-- L签：团队旅游\n（跟团） -->
<g id="node14" class="node">
<title>L签：团队旅游\n（跟团）</title>
<path fill="#e0e0e0" stroke="black" d="M939.09,-1811.2C939.09,-1811.2 883.18,-1811.2 883.18,-1811.2 877.18,-1811.2 871.18,-1805.2 871.18,-1799.2 871.18,-1799.2 871.18,-1784.8 871.18,-1784.8 871.18,-1778.8 877.18,-1772.8 883.18,-1772.8 883.18,-1772.8 939.09,-1772.8 939.09,-1772.8 945.09,-1772.8 951.09,-1778.8 951.09,-1784.8 951.09,-1784.8 951.09,-1799.2 951.09,-1799.2 951.09,-1805.2 945.09,-1811.2 939.09,-1811.2"/>
<text text-anchor="middle" x="911.14" y="-1795" font-family="Sans-serif" font-size="10.00">L签：团队旅游</text>
<text text-anchor="middle" x="911.14" y="-1783" font-family="Sans-serif" font-size="10.00">（跟团）</text>
</g>
<!-- 旅游签注（G签/L签）&#45;&gt;L签：团队旅游\n（跟团） -->
<g id="edge13" class="edge">
<title>旅游签注（G签/L签）-&gt;L签：团队旅游\n（跟团）</title>
<path fill="none" stroke="#555555" d="M682.61,-1752.92C737.06,-1762.27 821.44,-1776.76 870.69,-1785.22"/>
<text text-anchor="middle" x="764.1" y="-1770.7" font-family="Sans-serif" font-size="9.00">类型</text>
</g>
<!-- 有效期：通常6个月 -->
<g id="node15" class="node">
<title>有效期：通常6个月</title>
<path fill="#e0e0e0" stroke="black" d="M946.04,-1715C946.04,-1715 876.24,-1715 876.24,-1715 870.24,-1715 864.24,-1709 864.24,-1703 864.24,-1703 864.24,-1691 864.24,-1691 864.24,-1685 870.24,-1679 876.24,-1679 876.24,-1679 946.04,-1679 946.04,-1679 952.04,-1679 958.04,-1685 958.04,-1691 958.04,-1691 958.04,-1703 958.04,-1703 958.04,-1709 952.04,-1715 946.04,-1715"/>
<text text-anchor="middle" x="911.14" y="-1694" font-family="Sans-serif" font-size="10.00">有效期：通常6个月</text>
</g>
<!-- 旅游签注（G签/L签）&#45;&gt;有效期：通常6个月 -->
<g id="edge14" class="edge">
<title>旅游签注（G签/L签）-&gt;有效期：通常6个月</title>
<path fill="none" stroke="#555555" d="M682.37,-1726.47C703.32,-1720.03 727.89,-1713.32 750.6,-1709.2 788.32,-1702.36 831.73,-1699.35 863.74,-1698.03"/>
<text text-anchor="middle" x="764.1" y="-1711.9" font-family="Sans-serif" font-size="9.00">有效期</text>
</g>
<!-- 特殊许可，必须提前申请 -->
<g id="node17" class="node">
<title>特殊许可，必须提前申请</title>
<path fill="#e0e0e0" stroke="black" d="M954.79,-1621C954.79,-1621 867.49,-1621 867.49,-1621 861.49,-1621 855.49,-1615 855.49,-1609 855.49,-1609 855.49,-1597 855.49,-1597 855.49,-1591 861.49,-1585 867.49,-1585 867.49,-1585 954.79,-1585 954.79,-1585 960.79,-1585 966.79,-1591 966.79,-1597 966.79,-1597 966.79,-1609 966.79,-1609 966.79,-1615 960.79,-1621 954.79,-1621"/>
<text text-anchor="middle" x="911.14" y="-1600" font-family="Sans-serif" font-size="10.00">特殊许可，必须提前申请</text>
</g>
<!-- 入金证&#45;&gt;特殊许可，必须提前申请 -->
<g id="edge16" class="edge">
<title>入金证-&gt;特殊许可，必须提前申请</title>
<path fill="none" stroke="#555555" d="M656.99,-1541.4C702.1,-1552.37 795.15,-1575.02 855,-1589.58"/>
<text text-anchor="middle" x="764.1" y="-1571.7" font-family="Sans-serif" font-size="9.00">性质</text>
</g>
<!-- 办理时长：3&#45;5工作日 -->
<g id="node18" class="node">
<title>办理时长：3-5工作日</title>
<path fill="#e0e0e0" stroke="black" d="M950.2,-1527C950.2,-1527 872.07,-1527 872.07,-1527 866.07,-1527 860.07,-1521 860.07,-1515 860.07,-1515 860.07,-1503 860.07,-1503 860.07,-1497 866.07,-1491 872.07,-1491 872.07,-1491 950.2,-1491 950.2,-1491 956.2,-1491 962.2,-1497 962.2,-1503 962.2,-1503 962.2,-1515 962.2,-1515 962.2,-1521 956.2,-1527 950.2,-1527"/>
<text text-anchor="middle" x="911.14" y="-1506" font-family="Sans-serif" font-size="10.00">办理时长：3-5工作日</text>
</g>
<!-- 入金证&#45;&gt;办理时长：3&#45;5工作日 -->
<g id="edge17" class="edge">
<title>入金证-&gt;办理时长：3-5工作日</title>
<path fill="none" stroke="#555555" d="M656.85,-1531.37C681.11,-1528.1 718.24,-1523.33 750.6,-1520.2 787.08,-1516.67 828.36,-1513.8 859.78,-1511.85"/>
<text text-anchor="middle" x="764.1" y="-1522.9" font-family="Sans-serif" font-size="9.00">时间</text>
</g>
<!-- 办理流程：选择资质旅行社 -->
<g id="node19" class="node">
<title>办理流程：选择资质旅行社</title>
<path fill="#e1f5fe" stroke="black" d="M958.54,-1433C958.54,-1433 863.74,-1433 863.74,-1433 857.74,-1433 851.74,-1427 851.74,-1421 851.74,-1421 851.74,-1409 851.74,-1409 851.74,-1403 857.74,-1397 863.74,-1397 863.74,-1397 958.54,-1397 958.54,-1397 964.54,-1397 970.54,-1403 970.54,-1409 970.54,-1409 970.54,-1421 970.54,-1421 970.54,-1427 964.54,-1433 958.54,-1433"/>
<text text-anchor="middle" x="911.14" y="-1412" font-family="Sans-serif" font-size="10.00">办理流程：选择资质旅行社</text>
</g>
<!-- 入金证&#45;&gt;办理流程：选择资质旅行社 -->
<g id="edge18" class="edge">
<title>入金证-&gt;办理流程：选择资质旅行社</title>
<path fill="none" stroke="#555555" d="M656.99,-1523.71C705.36,-1502.94 808.85,-1458.5 867.43,-1433.34"/>
<text text-anchor="middle" x="764.1" y="-1484.88" font-family="Sans-serif" font-size="9.00">流程</text>
</g>
<!-- 准备材料： -->
<g id="node20" class="node">
<title>准备材料：</title>
<path fill="#bbdefb" stroke="black" d="M1184.48,-1486C1184.48,-1486 1142.18,-1486 1142.18,-1486 1136.18,-1486 1130.18,-1480 1130.18,-1474 1130.18,-1474 1130.18,-1462 1130.18,-1462 1130.18,-1456 1136.18,-1450 1142.18,-1450 1142.18,-1450 1184.48,-1450 1184.48,-1450 1190.48,-1450 1196.48,-1456 1196.48,-1462 1196.48,-1462 1196.48,-1474 1196.48,-1474 1196.48,-1480 1190.48,-1486 1184.48,-1486"/>
<text text-anchor="middle" x="1163.33" y="-1465" font-family="Sans-serif" font-size="10.00">准备材料：</text>
</g>
<!-- 办理流程：选择资质旅行社&#45;&gt;准备材料： -->
<g id="edge19" class="edge">
<title>办理流程：选择资质旅行社-&gt;准备材料：</title>
<path fill="none" stroke="#555555" d="M970.8,-1427.43C1020.34,-1437.92 1089.46,-1452.56 1129.69,-1461.09"/>
<text text-anchor="middle" x="1054.8" y="-1448.95" font-family="Sans-serif" font-size="9.00">然后</text>
</g>
<!-- 旅行社发送至邮箱\n自行打印并携带 -->
<g id="node25" class="node">
<title>旅行社发送至邮箱\n自行打印并携带</title>
<path fill="#e0e0e0" stroke="black" d="M1195.73,-1392.2C1195.73,-1392.2 1130.93,-1392.2 1130.93,-1392.2 1124.93,-1392.2 1118.93,-1386.2 1118.93,-1380.2 1118.93,-1380.2 1118.93,-1365.8 1118.93,-1365.8 1118.93,-1359.8 1124.93,-1353.8 1130.93,-1353.8 1130.93,-1353.8 1195.73,-1353.8 1195.73,-1353.8 1201.73,-1353.8 1207.73,-1359.8 1207.73,-1365.8 1207.73,-1365.8 1207.73,-1380.2 1207.73,-1380.2 1207.73,-1386.2 1201.73,-1392.2 1195.73,-1392.2"/>
<text text-anchor="middle" x="1163.33" y="-1376" font-family="Sans-serif" font-size="10.00">旅行社发送至邮箱</text>
<text text-anchor="middle" x="1163.33" y="-1364" font-family="Sans-serif" font-size="10.00">自行打印并携带</text>
</g>
<!-- 办理流程：选择资质旅行社&#45;&gt;旅行社发送至邮箱\n自行打印并携带 -->
<g id="edge24" class="edge">
<title>办理流程：选择资质旅行社-&gt;旅行社发送至邮箱\n自行打印并携带</title>
<path fill="none" stroke="#555555" d="M960.13,-1396.56C984.97,-1387.96 1016.01,-1378.66 1044.68,-1374.2 1068.9,-1370.43 1096.26,-1369.93 1118.5,-1370.46"/>
<text text-anchor="middle" x="1054.8" y="-1376.9" font-family="Sans-serif" font-size="9.00">完成后</text>
</g>
<!-- 高清彩色白底证件照电子档 -->
<g id="node21" class="node">
<title>高清彩色白底证件照电子档</title>
<path fill="#e0e0e0" stroke="black" d="M1423.53,-1629C1423.53,-1629 1328.73,-1629 1328.73,-1629 1322.73,-1629 1316.73,-1623 1316.73,-1617 1316.73,-1617 1316.73,-1605 1316.73,-1605 1316.73,-1599 1322.73,-1593 1328.73,-1593 1328.73,-1593 1423.53,-1593 1423.53,-1593 1429.53,-1593 1435.53,-1599 1435.53,-1605 1435.53,-1605 1435.53,-1617 1435.53,-1617 1435.53,-1623 1429.53,-1629 1423.53,-1629"/>
<text text-anchor="middle" x="1376.13" y="-1608" font-family="Sans-serif" font-size="10.00">高清彩色白底证件照电子档</text>
</g>
<!-- 准备材料：&#45;&gt;高清彩色白底证件照电子档 -->
<g id="edge20" class="edge">
<title>准备材料：-&gt;高清彩色白底证件照电子档</title>
<path fill="none" stroke="#555555" d="M1191.46,-1486.4C1231.93,-1513.86 1307.69,-1565.25 1348.11,-1592.67"/>
</g>
<!-- 大通证及有效签注\n（正反面彩色电子档） -->
<g id="node22" class="node">
<title>大通证及有效签注\n（正反面彩色电子档）</title>
<path fill="#e0e0e0" stroke="black" d="M1416.03,-1535.2C1416.03,-1535.2 1336.23,-1535.2 1336.23,-1535.2 1330.23,-1535.2 1324.23,-1529.2 1324.23,-1523.2 1324.23,-1523.2 1324.23,-1508.8 1324.23,-1508.8 1324.23,-1502.8 1330.23,-1496.8 1336.23,-1496.8 1336.23,-1496.8 1416.03,-1496.8 1416.03,-1496.8 1422.03,-1496.8 1428.03,-1502.8 1428.03,-1508.8 1428.03,-1508.8 1428.03,-1523.2 1428.03,-1523.2 1428.03,-1529.2 1422.03,-1535.2 1416.03,-1535.2"/>
<text text-anchor="middle" x="1376.13" y="-1519" font-family="Sans-serif" font-size="10.00">大通证及有效签注</text>
<text text-anchor="middle" x="1376.13" y="-1507" font-family="Sans-serif" font-size="10.00">（正反面彩色电子档）</text>
</g>
<!-- 准备材料：&#45;&gt;大通证及有效签注\n（正反面彩色电子档） -->
<g id="edge21" class="edge">
<title>准备材料：-&gt;大通证及有效签注\n（正反面彩色电子档）</title>
<path fill="none" stroke="#555555" d="M1196.8,-1475.39C1230.64,-1483.1 1284.15,-1495.28 1323.73,-1504.3"/>
</g>
<!-- 身份证正反面彩色电子档 -->
<g id="node23" class="node">
<title>身份证正反面彩色电子档</title>
<path fill="#e0e0e0" stroke="black" d="M1419.78,-1439C1419.78,-1439 1332.48,-1439 1332.48,-1439 1326.48,-1439 1320.48,-1433 1320.48,-1427 1320.48,-1427 1320.48,-1415 1320.48,-1415 1320.48,-1409 1326.48,-1403 1332.48,-1403 1332.48,-1403 1419.78,-1403 1419.78,-1403 1425.78,-1403 1431.78,-1409 1431.78,-1415 1431.78,-1415 1431.78,-1427 1431.78,-1427 1431.78,-1433 1425.78,-1439 1419.78,-1439"/>
<text text-anchor="middle" x="1376.13" y="-1418" font-family="Sans-serif" font-size="10.00">身份证正反面彩色电子档</text>
</g>
<!-- 准备材料：&#45;&gt;身份证正反面彩色电子档 -->
<g id="edge22" class="edge">
<title>准备材料：-&gt;身份证正反面彩色电子档</title>
<path fill="none" stroke="#555555" d="M1196.8,-1460.76C1229.6,-1453.45 1280.88,-1442.01 1320.05,-1433.28"/>
</g>
<!-- 其他相关表格材料\n（旅行社提供） -->
<g id="node24" class="node">
<title>其他相关表格材料\n（旅行社提供）</title>
<path fill="#e0e0e0" stroke="black" d="M1408.53,-1345.2C1408.53,-1345.2 1343.73,-1345.2 1343.73,-1345.2 1337.73,-1345.2 1331.73,-1339.2 1331.73,-1333.2 1331.73,-1333.2 1331.73,-1318.8 1331.73,-1318.8 1331.73,-1312.8 1337.73,-1306.8 1343.73,-1306.8 1343.73,-1306.8 1408.53,-1306.8 1408.53,-1306.8 1414.53,-1306.8 1420.53,-1312.8 1420.53,-1318.8 1420.53,-1318.8 1420.53,-1333.2 1420.53,-1333.2 1420.53,-1339.2 1414.53,-1345.2 1408.53,-1345.2"/>
<text text-anchor="middle" x="1376.13" y="-1329" font-family="Sans-serif" font-size="10.00">其他相关表格材料</text>
<text text-anchor="middle" x="1376.13" y="-1317" font-family="Sans-serif" font-size="10.00">（旅行社提供）</text>
</g>
<!-- 准备材料：&#45;&gt;其他相关表格材料\n（旅行社提供） -->
<g id="edge23" class="edge">
<title>准备材料：-&gt;其他相关表格材料\n（旅行社提供）</title>
<path fill="none" stroke="#555555" d="M1191.46,-1449.73C1231.26,-1422.91 1305.2,-1373.1 1346.08,-1345.57"/>
</g>
<!-- 出发地：厦门五通码头 -->
<g id="node27" class="node">
<title>出发地：厦门五通码头</title>
<path fill="#e0e0e0" stroke="black" d="M951.04,-1339C951.04,-1339 871.24,-1339 871.24,-1339 865.24,-1339 859.24,-1333 859.24,-1327 859.24,-1327 859.24,-1315 859.24,-1315 859.24,-1309 865.24,-1303 871.24,-1303 871.24,-1303 951.04,-1303 951.04,-1303 957.04,-1303 963.04,-1309 963.04,-1315 963.04,-1315 963.04,-1327 963.04,-1327 963.04,-1333 957.04,-1339 951.04,-1339"/>
<text text-anchor="middle" x="911.14" y="-1318" font-family="Sans-serif" font-size="10.00">出发地：厦门五通码头</text>
</g>
<!-- 海上航线（小三通）&#45;&gt;出发地：厦门五通码头 -->
<g id="edge26" class="edge">
<title>海上航线（小三通）-&gt;出发地：厦门五通码头</title>
<path fill="none" stroke="#555555" d="M655.67,-1151.4C693.26,-1178.92 766.9,-1232.02 831.6,-1274 846.66,-1283.77 863.73,-1294.08 878.1,-1302.54"/>
<text text-anchor="middle" x="764.1" y="-1239.23" font-family="Sans-serif" font-size="9.00">出发</text>
</g>
<!-- 目的地：金门水头码头 -->
<g id="node28" class="node">
<title>目的地：金门水头码头</title>
<path fill="#e0e0e0" stroke="black" d="M951.04,-1245C951.04,-1245 871.24,-1245 871.24,-1245 865.24,-1245 859.24,-1239 859.24,-1233 859.24,-1233 859.24,-1221 859.24,-1221 859.24,-1215 865.24,-1209 871.24,-1209 871.24,-1209 951.04,-1209 951.04,-1209 957.04,-1209 963.04,-1215 963.04,-1221 963.04,-1221 963.04,-1233 963.04,-1233 963.04,-1239 957.04,-1245 951.04,-1245"/>
<text text-anchor="middle" x="911.14" y="-1224" font-family="Sans-serif" font-size="10.00">目的地：金门水头码头</text>
</g>
<!-- 海上航线（小三通）&#45;&gt;目的地：金门水头码头 -->
<g id="edge27" class="edge">
<title>海上航线（小三通）-&gt;目的地：金门水头码头</title>
<path fill="none" stroke="#555555" d="M678.1,-1148.95C728.4,-1165.86 807.58,-1192.5 859.19,-1209.86"/>
<text text-anchor="middle" x="764.1" y="-1182.7" font-family="Sans-serif" font-size="9.00">抵达</text>
</g>
<!-- 船程：约30分钟 -->
<g id="node29" class="node">
<title>船程：约30分钟</title>
<path fill="#e0e0e0" stroke="black" d="M941.04,-1151C941.04,-1151 881.24,-1151 881.24,-1151 875.24,-1151 869.24,-1145 869.24,-1139 869.24,-1139 869.24,-1127 869.24,-1127 869.24,-1121 875.24,-1115 881.24,-1115 881.24,-1115 941.04,-1115 941.04,-1115 947.04,-1115 953.04,-1121 953.04,-1127 953.04,-1127 953.04,-1139 953.04,-1139 953.04,-1145 947.04,-1151 941.04,-1151"/>
<text text-anchor="middle" x="911.14" y="-1130" font-family="Sans-serif" font-size="10.00">船程：约30分钟</text>
</g>
<!-- 海上航线（小三通）&#45;&gt;船程：约30分钟 -->
<g id="edge28" class="edge">
<title>海上航线（小三通）-&gt;船程：约30分钟</title>
<path fill="none" stroke="#555555" d="M678.1,-1133C731.67,-1133 818,-1133 868.89,-1133"/>
<text text-anchor="middle" x="764.1" y="-1135.7" font-family="Sans-serif" font-size="9.00">时长</text>
</g>
<!-- 建议提前预订船票：\n“i海台”小程序 -->
<g id="node30" class="node">
<title>建议提前预订船票：\n“i海台”小程序</title>
<path fill="#e0e0e0" stroke="black" d="M947.29,-1057.2C947.29,-1057.2 874.99,-1057.2 874.99,-1057.2 868.99,-1057.2 862.99,-1051.2 862.99,-1045.2 862.99,-1045.2 862.99,-1030.8 862.99,-1030.8 862.99,-1024.8 868.99,-1018.8 874.99,-1018.8 874.99,-1018.8 947.29,-1018.8 947.29,-1018.8 953.29,-1018.8 959.29,-1024.8 959.29,-1030.8 959.29,-1030.8 959.29,-1045.2 959.29,-1045.2 959.29,-1051.2 953.29,-1057.2 947.29,-1057.2"/>
<text text-anchor="middle" x="911.14" y="-1041" font-family="Sans-serif" font-size="10.00">建议提前预订船票：</text>
<text text-anchor="middle" x="911.14" y="-1029" font-family="Sans-serif" font-size="10.00">“i海台”小程序</text>
</g>
<!-- 海上航线（小三通）&#45;&gt;建议提前预订船票：\n“i海台”小程序 -->
<g id="edge29" class="edge">
<title>海上航线（小三通）-&gt;建议提前预订船票：\n“i海台”小程序</title>
<path fill="none" stroke="#555555" d="M678.1,-1116.88C729.49,-1099.42 811.03,-1071.69 862.5,-1054.19"/>
<text text-anchor="middle" x="764.1" y="-1093.89" font-family="Sans-serif" font-size="9.00">建议</text>
</g>
<!-- 厦门高崎国际机场\n&#45; 金门尚义机场 -->
<g id="node32" class="node">
<title>厦门高崎国际机场\n- 金门尚义机场</title>
<path fill="#e0e0e0" stroke="black" d="M943.54,-961.2C943.54,-961.2 878.74,-961.2 878.74,-961.2 872.74,-961.2 866.74,-955.2 866.74,-949.2 866.74,-949.2 866.74,-934.8 866.74,-934.8 866.74,-928.8 872.74,-922.8 878.74,-922.8 878.74,-922.8 943.54,-922.8 943.54,-922.8 949.54,-922.8 955.54,-928.8 955.54,-934.8 955.54,-934.8 955.54,-949.2 955.54,-949.2 955.54,-955.2 949.54,-961.2 943.54,-961.2"/>
<text text-anchor="middle" x="911.14" y="-945" font-family="Sans-serif" font-size="10.00">厦门高崎国际机场</text>
<text text-anchor="middle" x="911.14" y="-933" font-family="Sans-serif" font-size="10.00">- 金门尚义机场</text>
</g>
<!-- 空中航线&#45;&gt;厦门高崎国际机场\n&#45; 金门尚义机场 -->
<g id="edge31" class="edge">
<title>空中航线-&gt;厦门高崎国际机场\n- 金门尚义机场</title>
<path fill="none" stroke="#555555" d="M659.55,-856.81C708.64,-873.5 808.67,-907.5 866.4,-927.13"/>
<text text-anchor="middle" x="764.1" y="-897.2" font-family="Sans-serif" font-size="9.00">曾有</text>
</g>
<!-- 目前处于暂停状态 -->
<g id="node33" class="node">
<title>目前处于暂停状态</title>
<path fill="#e0e0e0" stroke="black" d="M943.54,-865C943.54,-865 878.74,-865 878.74,-865 872.74,-865 866.74,-859 866.74,-853 866.74,-853 866.74,-841 866.74,-841 866.74,-835 872.74,-829 878.74,-829 878.74,-829 943.54,-829 943.54,-829 949.54,-829 955.54,-835 955.54,-841 955.54,-841 955.54,-853 955.54,-853 955.54,-859 949.54,-865 943.54,-865"/>
<text text-anchor="middle" x="911.14" y="-844" font-family="Sans-serif" font-size="10.00">目前处于暂停状态</text>
</g>
<!-- 空中航线&#45;&gt;目前处于暂停状态 -->
<g id="edge32" class="edge">
<title>空中航线-&gt;目前处于暂停状态</title>
<path fill="none" stroke="#555555" d="M659.55,-847C708.64,-847 808.67,-847 866.4,-847"/>
<text text-anchor="middle" x="764.1" y="-849.7" font-family="Sans-serif" font-size="9.00">状态</text>
</g>
<!-- 若恢复：飞行时间约25分钟 -->
<g id="node34" class="node">
<title>若恢复：飞行时间约25分钟</title>
<path fill="#e0e0e0" stroke="black" d="M959.79,-771C959.79,-771 862.49,-771 862.49,-771 856.49,-771 850.49,-765 850.49,-759 850.49,-759 850.49,-747 850.49,-747 850.49,-741 856.49,-735 862.49,-735 862.49,-735 959.79,-735 959.79,-735 965.79,-735 971.79,-741 971.79,-747 971.79,-747 971.79,-759 971.79,-759 971.79,-765 965.79,-771 959.79,-771"/>
<text text-anchor="middle" x="911.14" y="-750" font-family="Sans-serif" font-size="10.00">若恢复：飞行时间约25分钟</text>
</g>
<!-- 空中航线&#45;&gt;若恢复：飞行时间约25分钟 -->
<g id="edge33" class="edge">
<title>空中航线-&gt;若恢复：飞行时间约25分钟</title>
<path fill="none" stroke="#555555" d="M659.55,-837.29C705.64,-821.79 796.64,-791.18 855.37,-771.42"/>
<text text-anchor="middle" x="764.1" y="-808.33" font-family="Sans-serif" font-size="9.00">若恢复</text>
</g>
<!-- 持有效证件（大通证及签注） -->
<g id="node36" class="node">
<title>持有效证件（大通证及签注）</title>
<path fill="#e0e0e0" stroke="black" d="M962.29,-677C962.29,-677 859.99,-677 859.99,-677 853.99,-677 847.99,-671 847.99,-665 847.99,-665 847.99,-653 847.99,-653 847.99,-647 853.99,-641 859.99,-641 859.99,-641 962.29,-641 962.29,-641 968.29,-641 974.29,-647 974.29,-653 974.29,-653 974.29,-665 974.29,-665 974.29,-671 968.29,-677 962.29,-677"/>
<text text-anchor="middle" x="911.14" y="-656" font-family="Sans-serif" font-size="10.00">持有效证件（大通证及签注）</text>
</g>
<!-- 通关方式：五通码头电子化通关&#45;&gt;持有效证件（大通证及签注） -->
<g id="edge35" class="edge">
<title>通关方式：五通码头电子化通关-&gt;持有效证件（大通证及签注）</title>
<path fill="none" stroke="#555555" d="M696.92,-640.69C742.6,-644.61 802.92,-649.79 847.75,-653.64"/>
<text text-anchor="middle" x="764.1" y="-649.7" font-family="Sans-serif" font-size="9.00">要求</text>
</g>
<!-- 通过指定码头安检 -->
<g id="node37" class="node">
<title>通过指定码头安检</title>
<path fill="#e0e0e0" stroke="black" d="M943.54,-583C943.54,-583 878.74,-583 878.74,-583 872.74,-583 866.74,-577 866.74,-571 866.74,-571 866.74,-559 866.74,-559 866.74,-553 872.74,-547 878.74,-547 878.74,-547 943.54,-547 943.54,-547 949.54,-547 955.54,-553 955.54,-559 955.54,-559 955.54,-571 955.54,-571 955.54,-577 949.54,-583 943.54,-583"/>
<text text-anchor="middle" x="911.14" y="-562" font-family="Sans-serif" font-size="10.00">通过指定码头安检</text>
</g>
<!-- 通关方式：五通码头电子化通关&#45;&gt;通过指定码头安检 -->
<g id="edge36" class="edge">
<title>通关方式：五通码头电子化通关-&gt;通过指定码头安检</title>
<path fill="none" stroke="#555555" d="M696.92,-618.41C749.38,-605.27 821.15,-587.29 866.58,-575.91"/>
<text text-anchor="middle" x="764.1" y="-606.89" font-family="Sans-serif" font-size="9.00">步骤</text>
</g>
<!-- 避免携带政治敏感材料\n（如大陆政治宣传品） -->
<g id="node39" class="node">
<title>避免携带政治敏感材料\n（如大陆政治宣传品）</title>
<path fill="#e0e0e0" stroke="black" d="M951.04,-489.2C951.04,-489.2 871.24,-489.2 871.24,-489.2 865.24,-489.2 859.24,-483.2 859.24,-477.2 859.24,-477.2 859.24,-462.8 859.24,-462.8 859.24,-456.8 865.24,-450.8 871.24,-450.8 871.24,-450.8 951.04,-450.8 951.04,-450.8 957.04,-450.8 963.04,-456.8 963.04,-462.8 963.04,-462.8 963.04,-477.2 963.04,-477.2 963.04,-483.2 957.04,-489.2 951.04,-489.2"/>
<text text-anchor="middle" x="911.14" y="-473" font-family="Sans-serif" font-size="10.00">避免携带政治敏感材料</text>
<text text-anchor="middle" x="911.14" y="-461" font-family="Sans-serif" font-size="10.00">（如大陆政治宣传品）</text>
</g>
<!-- 携带物品限制&#45;&gt;避免携带政治敏感材料\n（如大陆政治宣传品） -->
<g id="edge38" class="edge">
<title>携带物品限制-&gt;避免携带政治敏感材料\n（如大陆政治宣传品）</title>
<path fill="none" stroke="#555555" d="M666.88,-490.23C690.67,-487.81 722.47,-484.66 750.6,-482.2 786.71,-479.04 827.47,-475.93 858.74,-473.64"/>
<text text-anchor="middle" x="764.1" y="-484.9" font-family="Sans-serif" font-size="9.00">禁忌</text>
</g>
<!-- 以免违反台湾地区相关规定 -->
<g id="node40" class="node">
<title>以免违反台湾地区相关规定</title>
<path fill="#e0e0e0" stroke="black" d="M958.54,-393C958.54,-393 863.74,-393 863.74,-393 857.74,-393 851.74,-387 851.74,-381 851.74,-381 851.74,-369 851.74,-369 851.74,-363 857.74,-357 863.74,-357 863.74,-357 958.54,-357 958.54,-357 964.54,-357 970.54,-363 970.54,-369 970.54,-369 970.54,-381 970.54,-381 970.54,-387 964.54,-393 958.54,-393"/>
<text text-anchor="middle" x="911.14" y="-372" font-family="Sans-serif" font-size="10.00">以免违反台湾地区相关规定</text>
</g>
<!-- 携带物品限制&#45;&gt;以免违反台湾地区相关规定 -->
<g id="edge39" class="edge">
<title>携带物品限制-&gt;以免违反台湾地区相关规定</title>
<path fill="none" stroke="#555555" d="M666.95,-478.56C718.34,-456.68 812.22,-416.7 867.09,-393.33"/>
<text text-anchor="middle" x="764.1" y="-444.32" font-family="Sans-serif" font-size="9.00">原因</text>
</g>
</g>
</svg>